<?xml version="1.0" standalone="no"?>
<!DOCTYPE svg PUBLIC "-//W3C//DTD SVG 20010904//EN"
 "http://www.w3.org/TR/2001/REC-SVG-20010904/DTD/svg10.dtd">
<svg version="1.0" xmlns="http://www.w3.org/2000/svg"
 width="1280.000000pt" height="844.000000pt" viewBox="0 0 1280.000000 844.000000"
 preserveAspectRatio="xMidYMid meet">
<g transform="translate(0.000000,844.000000) scale(0.100000,-0.100000)"
fill="#000000" stroke="none">
<path d="M5416 7905 c-11 -8 -31 -15 -44 -15 -15 0 -37 -13 -56 -33 -17 -19
-57 -53 -89 -76 -66 -49 -72 -59 -81 -161 -7 -68 -11 -78 -42 -106 -45 -42
-45 -78 1 -101 23 -12 120 -1 155 17 48 26 117 14 182 -32 14 -10 21 -9 40 8
13 12 64 35 113 52 50 17 108 37 129 45 21 8 48 12 58 9 25 -6 102 -85 135
-137 14 -22 42 -65 63 -95 20 -30 64 -107 97 -170 121 -231 136 -255 205 -329
38 -42 83 -102 100 -133 35 -66 128 -157 216 -211 34 -21 83 -64 109 -95 27
-31 108 -116 182 -188 l135 -132 4 -59 c5 -70 40 -130 91 -154 19 -9 41 -29
49 -45 8 -15 26 -37 38 -47 44 -34 31 -90 -81 -327 -59 -124 -90 -177 -125
-215 -46 -49 -156 -193 -187 -246 -13 -22 -128 -99 -149 -99 -17 0 -133 -77
-171 -113 -24 -23 -48 -37 -56 -34 -8 3 -31 -5 -53 -18 -71 -43 -133 -75 -146
-75 -7 0 -19 9 -26 20 -10 17 -23 20 -92 20 -49 0 -95 6 -117 15 -19 8 -57 15
-84 15 -39 0 -55 5 -83 30 -42 37 -104 60 -165 60 -29 0 -57 7 -76 20 -16 11
-40 20 -52 20 -12 0 -56 18 -98 40 -67 35 -84 40 -145 40 -38 0 -81 5 -96 10
-15 6 -72 19 -126 30 -54 10 -104 23 -111 27 -6 4 -75 8 -152 8 -136 1 -143 2
-265 41 -226 75 -414 132 -450 138 -19 3 -71 20 -115 37 -148 59 -245 88 -335
104 -50 9 -145 30 -213 46 -67 17 -144 35 -172 39 -99 15 -331 81 -392 111
-36 19 -88 35 -125 40 -284 36 -383 51 -399 59 -10 6 -96 24 -191 40 -95 16
-207 39 -248 51 -51 14 -100 21 -153 20 -52 -1 -88 4 -107 14 -17 9 -57 15
-97 15 -63 0 -73 3 -137 45 -38 25 -77 45 -86 45 -10 0 -28 8 -41 18 -35 28
-110 35 -165 16 -36 -12 -52 -13 -74 -4 -15 6 -80 13 -146 15 -131 4 -167 -2
-276 -54 -53 -25 -72 -41 -97 -79 -17 -27 -42 -58 -57 -71 -20 -17 -25 -29
-21 -49 13 -64 29 -115 43 -137 9 -13 13 -29 10 -34 -4 -5 4 -19 16 -31 20
-18 22 -29 19 -91 -2 -61 1 -76 25 -117 63 -110 92 -125 251 -128 67 -1 130
-7 140 -12 46 -25 126 -24 228 4 55 15 113 26 130 26 16 -1 38 7 50 17 35 32
64 42 118 41 29 -1 75 2 102 6 45 5 61 1 146 -35 53 -23 100 -41 104 -41 5 0
38 -13 74 -29 106 -48 197 -84 391 -156 75 -28 139 -58 280 -132 168 -87 443
-170 640 -192 58 -7 139 -16 180 -21 41 -6 116 -12 165 -15 50 -3 108 -10 130
-16 22 -6 58 -14 80 -18 22 -4 105 -37 185 -73 80 -36 163 -71 185 -78 96 -30
149 -80 339 -317 62 -77 190 -183 222 -183 30 0 61 -27 91 -78 15 -26 44 -66
64 -89 21 -23 41 -54 44 -70 4 -15 11 -41 16 -57 5 -16 9 -38 9 -48 0 -10 19
-45 41 -77 23 -33 39 -65 37 -72 -3 -8 -34 -18 -79 -25 -148 -23 -326 -85
-391 -135 -88 -68 -239 -237 -292 -325 -21 -35 -70 -91 -121 -138 -48 -43 -99
-97 -113 -120 -25 -38 -87 -121 -281 -375 -146 -191 -193 -249 -222 -270 -79
-59 -103 -71 -140 -71 -21 0 -40 -4 -43 -9 -3 -4 -25 -11 -48 -15 -38 -5 -136
-29 -238 -58 -21 -5 -51 -6 -75 -1 -45 10 -416 8 -512 -2 -34 -4 -106 -17
-160 -31 -54 -13 -105 -24 -115 -24 -28 0 -162 -97 -180 -130 -49 -87 16 -231
129 -289 96 -48 290 -94 445 -105 81 -6 217 10 325 38 58 15 65 15 110 -2 54
-22 73 -19 73 9 0 16 7 19 43 19 50 0 182 23 252 43 130 37 285 143 372 254
25 32 47 46 105 67 40 15 89 37 108 49 19 12 71 40 115 62 44 21 98 51 119 67
21 15 48 28 60 28 12 0 44 13 71 29 162 92 250 144 289 170 66 46 151 145 214
251 53 88 60 95 102 108 27 8 87 13 150 13 94 -1 108 -4 140 -26 44 -31 53
-31 99 -3 22 14 55 24 86 25 201 11 303 21 324 32 15 8 70 14 150 16 114 3
139 7 256 43 72 22 145 46 163 53 24 10 37 11 50 3 24 -15 44 -91 38 -141 -5
-41 -4 -43 20 -43 14 0 37 6 52 14 15 7 52 19 82 26 51 11 90 21 215 55 28 7
91 21 140 30 50 9 115 22 145 30 30 7 104 20 164 29 l109 15 55 53 c62 61 107
128 157 232 45 96 111 169 173 192 51 20 105 51 222 127 41 27 129 76 195 109
66 33 129 67 140 77 34 29 119 80 160 95 22 8 81 35 130 60 50 25 94 46 98 46
5 0 25 13 45 29 74 59 132 81 218 81 92 1 133 -9 181 -46 45 -34 113 -171 113
-228 0 -54 5 -60 70 -88 41 -19 59 -33 72 -59 57 -118 108 -233 108 -244 0
-18 53 -118 87 -162 129 -170 136 -179 188 -298 47 -105 127 -259 157 -300 54
-75 193 -238 328 -384 75 -80 157 -176 183 -212 26 -37 100 -118 165 -181 138
-135 187 -188 224 -243 31 -48 78 -96 144 -149 27 -22 67 -64 89 -94 42 -58
111 -120 160 -144 43 -22 189 -10 239 20 26 15 54 22 92 22 31 0 63 4 72 9 12
6 35 3 72 -9 71 -25 101 -25 133 0 14 11 35 20 47 20 29 0 81 -37 129 -92 48
-54 86 -68 113 -40 18 18 18 19 -12 57 -54 68 -28 101 41 50 74 -54 124 -85
136 -85 7 0 27 13 44 29 27 27 33 28 61 19 26 -9 33 -8 45 7 18 26 17 32 -14
51 -16 10 -57 36 -93 59 -76 50 -237 128 -295 143 -22 6 -76 16 -120 22 -44 7
-100 21 -125 31 -31 14 -75 22 -140 25 -215 9 -288 16 -348 31 -52 13 -66 21
-78 45 -8 16 -41 56 -73 88 -47 47 -83 104 -189 297 -122 223 -169 316 -288
573 -53 115 -195 359 -259 444 -22 30 -71 89 -110 131 -38 42 -85 100 -104
129 -62 96 -232 462 -271 586 -11 36 -26 79 -34 95 -34 74 -75 239 -76 303 0
18 -5 43 -11 54 -10 18 -34 129 -54 242 -4 22 -20 56 -36 75 -22 27 -29 46
-29 79 0 68 -51 149 -105 166 -36 11 -82 79 -99 147 -10 39 -28 77 -47 99 -16
19 -43 55 -59 80 -16 25 -43 64 -61 87 -32 44 -34 51 -55 248 -8 71 -21 88
-119 152 -99 66 -103 72 -98 162 6 103 60 274 134 425 22 43 39 86 39 95 0 21
33 112 64 176 68 140 73 161 74 312 0 79 -3 156 -8 173 -5 18 -4 40 2 57 18
48 -15 102 -82 135 -30 15 -66 27 -80 27 -28 1 -50 37 -50 83 0 27 -13 37 -24
19 -3 -5 -27 -1 -53 9 -42 16 -48 22 -48 46 -1 33 -25 43 -45 19 -18 -22 -29
-19 -41 13 l-11 27 -19 -37 c-22 -44 -38 -46 -94 -18 -28 14 -59 20 -110 20
-38 0 -89 7 -113 15 -33 12 -48 13 -64 4 -11 -6 -36 -8 -57 -5 -61 11 -79 9
-107 -13 -15 -12 -35 -21 -46 -21 -10 0 -29 -11 -41 -23 -12 -13 -39 -27 -60
-30 -20 -3 -56 -21 -80 -40 -23 -18 -60 -39 -82 -45 -62 -18 -97 -51 -102 -97
-2 -21 -8 -44 -13 -50 -16 -20 -23 -120 -10 -144 9 -18 17 -21 40 -16 23 5 31
2 40 -16 16 -29 5 -130 -21 -186 -10 -23 -19 -62 -19 -87 0 -25 -4 -47 -8 -50
-4 -2 -39 9 -77 25 -75 32 -202 70 -300 89 -33 7 -72 21 -87 31 -14 11 -32 19
-40 19 -51 0 -314 232 -389 343 -21 32 -39 61 -39 63 0 3 -20 33 -44 67 -64
89 -288 300 -405 381 -236 164 -233 161 -380 306 -93 92 -130 121 -182 144
-35 16 -91 42 -123 57 -32 16 -67 29 -76 29 -9 0 -75 21 -146 46 -155 55 -173
59 -198 39z"/>
<path d="M2821 7514 c-200 -64 -366 -205 -460 -394 -76 -151 -85 -190 -78
-340 6 -143 16 -176 104 -347 61 -119 90 -158 137 -188 18 -11 45 -32 61 -47
41 -38 210 -127 274 -144 259 -68 551 21 745 226 50 53 78 96 116 174 28 57
54 126 60 152 5 27 13 63 18 80 10 33 1 148 -17 229 -49 209 -140 355 -293
470 -135 102 -267 142 -482 147 -100 3 -131 0 -185 -18z"/>
</g>
</svg>
